<?xml version="1.0" standalone="no"?>
<!DOCTYPE svg PUBLIC "-//W3C//DTD SVG 20010904//EN"
 "http://www.w3.org/TR/2001/REC-SVG-20010904/DTD/svg10.dtd">
<svg version="1.0" xmlns="http://www.w3.org/2000/svg"
 width="169.000000pt" height="195.000000pt" viewBox="0 0 169.000000 195.000000"
 preserveAspectRatio="xMidYMid meet">

<g transform="translate(0.000000,195.000000) scale(0.100000,-0.100000)"
fill="#000000" stroke="none">
<path d="M1565 1940 c-25 -9 -84 -75 -108 -120 l-17 -32 -20 22 c-11 13 -20
27 -20 32 0 5 -25 20 -57 34 -48 22 -58 23 -70 11 -15 -15 -35 -13 -133 14
-42 11 -272 15 -315 6 -134 -31 -305 -101 -323 -134 -9 -15 -14 -15 -37 -5
-33 15 -58 3 -144 -76 -60 -54 -63 -59 -50 -80 12 -19 11 -23 -8 -37 -26 -18
-118 -141 -118 -158 0 -7 -10 -31 -23 -54 -12 -23 -22 -49 -22 -57 0 -8 -9
-18 -20 -21 -26 -8 -44 -44 -63 -128 -14 -62 -14 -68 1 -80 14 -10 18 -35 20
-137 1 -69 7 -142 13 -162 7 -27 6 -44 -2 -59 -9 -17 -8 -34 6 -80 10 -33 22
-59 27 -59 4 0 8 -7 8 -16 0 -9 14 -41 31 -71 22 -38 36 -52 47 -49 12 3 30
-11 55 -45 33 -42 37 -52 26 -65 -11 -13 -4 -23 47 -69 32 -30 64 -54 69 -55
6 0 -5 -9 -23 -20 -17 -11 -32 -28 -33 -37 -6 -90 33 -133 131 -146 69 -9 198
10 254 37 28 13 66 29 83 36 50 19 156 127 201 205 24 42 53 77 71 88 18 10
43 36 56 57 29 45 69 79 104 86 80 16 100 26 148 77 35 38 58 75 77 125 22 56
33 72 56 82 41 17 61 54 63 111 0 38 5 53 19 60 23 12 48 61 48 94 0 14 8 52
17 85 14 50 14 69 5 111 -14 60 1 313 22 394 33 121 28 233 -11 267 -23 20
-63 28 -88 18z m-564 -135 c-2 -22 -4 -48 -5 -57 0 -13 -9 -18 -29 -18 -29 0
-29 1 -23 40 4 25 2 40 -4 40 -9 0 -14 -49 -7 -66 3 -9 -43 -25 -53 -19 -4 3
-4 22 0 42 9 36 6 52 -6 40 -3 -3 -8 -24 -11 -46 -5 -36 -9 -41 -31 -41 -23 0
-24 3 -18 38 3 20 6 47 6 60 0 20 5 22 35 20 19 -1 37 1 40 4 3 3 29 5 58 4
l52 -1 -4 -40z m142 23 c16 -12 16 -16 0 -66 -15 -45 -20 -51 -37 -45 -12 3
-35 7 -53 7 -18 1 -35 5 -40 9 -14 15 22 62 52 68 17 4 22 7 13 8 -10 0 -18 8
-18 16 0 19 59 21 83 3z m-368 -120 c-20 -15 -44 -8 -48 15 -4 19 -4 19 -6 -5
-1 -17 -8 -29 -21 -33 -32 -10 -40 3 -40 59 0 49 2 54 25 58 19 4 25 1 25 -13
0 -11 5 -19 11 -19 5 0 9 10 7 22 -2 16 3 23 22 28 24 6 25 4 30 -49 3 -32 1
-59 -5 -63z m543 106 c26 -7 28 -21 5 -46 -9 -10 -11 -18 -5 -18 6 0 13 4 16
9 7 10 46 3 46 -9 0 -4 -7 -11 -15 -14 -9 -3 -15 -11 -14 -18 3 -19 -22 -68
-35 -68 -6 0 -18 5 -26 10 -12 8 -13 13 -2 30 8 14 9 20 1 20 -6 0 -13 -9 -16
-20 -4 -16 -11 -19 -27 -14 -33 10 -41 21 -26 39 7 8 10 18 7 21 -3 3 -10 -4
-17 -15 -11 -22 -27 -26 -49 -12 -11 7 -10 14 8 40 12 17 29 31 36 31 9 0 12
6 8 16 -4 12 0 15 18 12 17 -2 23 -9 21 -23 -3 -20 -2 -20 13 -1 8 11 15 23
15 28 0 9 7 10 38 2z m-688 -68 c21 -56 17 -78 -19 -103 -50 -34 -68 -30 -81
18 -14 51 -9 64 32 89 43 26 57 25 68 -4z m-118 -160 c-22 -17 -24 -17 -42 -1
-22 20 -24 17 -11 -18 7 -19 5 -26 -11 -36 -17 -11 -24 -9 -45 11 l-26 23 18
-34 c17 -33 17 -35 -3 -50 -11 -9 -25 -26 -31 -39 -10 -19 -15 -20 -32 -11
-19 10 -20 9 -9 -11 10 -18 9 -25 -4 -38 -12 -13 -18 -13 -30 -2 -18 14 -22 0
-6 -16 11 -11 3 -44 -10 -44 -4 0 -22 23 -40 50 -31 48 -32 52 -15 70 10 11
24 16 33 12 14 -5 15 -3 5 9 -10 12 -9 20 3 38 l16 22 43 -26 c24 -14 46 -25
49 -25 6 0 -34 122 -45 134 -4 5 3 18 17 29 24 18 26 18 44 2 22 -20 25 -14 9
16 -8 16 -6 23 13 39 l23 18 55 -51 55 -52 -23 -19z m742 -12 c13 -5 16 -22
16 -85 0 -43 4 -79 8 -79 14 0 52 133 42 145 -17 20 1 25 87 25 78 0 84 -2 92
-23 5 -12 12 -114 16 -225 6 -165 10 -204 23 -211 32 -18 0 -31 -78 -31 -104
0 -110 6 -105 108 l5 77 -31 -93 c-23 -73 -34 -92 -45 -88 -9 3 -40 6 -70 6
l-54 0 -1 63 c-1 34 -4 76 -8 92 l-6 30 -14 -44 -13 -44 -17 39 c-10 21 -30
45 -44 53 -15 8 -27 18 -27 22 0 4 16 53 36 110 20 58 33 112 30 124 -3 12 -3
25 1 29 8 8 136 8 157 0z m-1044 -239 c10 -12 10 -21 2 -40 -8 -18 -8 -25 -1
-25 6 0 13 9 16 20 3 11 9 20 14 20 18 0 20 -28 5 -64 -18 -43 -42 -47 -80
-11 -29 27 -33 60 -10 93 18 26 36 28 54 7z m843 -75 c15 -12 29 -36 33 -55 9
-49 -22 -179 -51 -213 -21 -24 -31 -27 -106 -32 l-84 -5 -13 -59 c-9 -44 -10
-62 -1 -72 10 -12 2 -14 -45 -14 -42 0 -56 4 -56 15 0 8 -14 30 -31 50 l-31
35 24 9 c32 12 43 28 57 83 15 64 14 68 -12 68 -13 0 -26 2 -29 5 -3 3 3 44
12 90 10 47 14 88 9 91 -30 18 6 24 145 24 139 0 156 -2 179 -20z m-900 -58
c13 -12 16 -24 11 -45 -5 -24 -2 -34 16 -47 16 -12 20 -22 15 -42 l-7 -26 -66
29 c-37 17 -68 32 -70 33 -5 6 20 100 31 114 11 14 43 7 70 -16z m577 -165 c0
-25 -20 -81 -32 -89 -7 -4 -45 -8 -84 -8 -56 0 -73 -3 -78 -16 -11 -29 -6 -32
60 -36 54 -3 70 -8 85 -27 27 -33 33 -84 19 -151 -15 -72 -42 -117 -76 -130
-14 -6 -88 -10 -165 -10 -110 0 -141 3 -145 14 -3 8 13 108 35 222 26 136 37
212 31 219 -6 7 -7 15 -3 18 3 4 84 7 180 7 132 0 173 -3 173 -13z m-540 -37
c0 -21 -5 -30 -17 -31 -17 -1 -17 -2 0 -6 10 -3 17 -14 17 -30 0 -28 2 -28
-68 7 -42 21 -51 30 -52 52 0 25 3 27 48 31 26 2 53 4 60 5 7 1 12 -10 12 -28z
m-3 -114 c10 -8 13 -105 4 -111 -20 -12 -53 7 -66 38 -12 27 -14 29 -15 10 0
-41 -28 -26 -32 16 -5 60 -2 63 56 56 28 -4 52 -8 53 -9z m34 -153 c7 -20 5
-23 -16 -23 -14 0 -25 -5 -25 -11 0 -6 12 -9 26 -7 20 2 29 -3 35 -20 10 -27
8 -28 -83 -36 -41 -4 -68 -3 -68 3 0 5 -2 16 -6 24 -3 10 5 17 28 22 28 7 30
9 11 12 -15 3 -23 12 -23 24 0 22 11 24 28 7 9 -9 12 -8 12 4 0 34 69 34 81 1z
m61 -149 c9 -16 22 -37 28 -47 9 -15 6 -20 -22 -31 -67 -27 -84 -28 -96 -2
-10 22 -8 25 34 36 24 7 41 16 39 21 -3 4 -24 1 -48 -7 -38 -14 -43 -13 -54 3
-20 26 -16 31 35 46 58 18 62 17 84 -19z m-118 -59 c19 -28 20 -35 6 -35 -5 0
-16 14 -25 30 -19 36 -4 40 19 5z m186 -46 c7 -11 20 -29 31 -40 16 -16 18
-23 8 -35 -18 -22 -66 -18 -79 7 -7 11 -14 18 -17 16 -2 -3 0 -14 6 -25 8 -15
8 -21 -2 -25 -15 -5 -69 62 -61 75 6 9 80 46 96 47 4 1 12 -8 18 -20z m130
-129 c24 -22 42 -41 40 -43 -3 -2 -31 -23 -63 -46 l-58 -42 -42 37 c-48 43
-52 50 -37 59 6 4 22 -3 36 -16 28 -26 45 -18 21 9 -23 25 -21 48 5 66 33 23
48 19 98 -24z"/>
<path d="M571 1715 c0 -11 4 -29 9 -40 8 -18 9 -18 9 5 0 14 -4 32 -9 40 -8
12 -10 12 -9 -5z"/>
<path d="M170 1300 c0 -5 5 -10 11 -10 5 0 7 5 4 10 -3 6 -8 10 -11 10 -2 0
-4 -4 -4 -10z"/>
<path d="M887 1163 c-3 -5 -8 -27 -12 -50 -6 -36 -4 -43 9 -43 18 0 36 38 36
76 0 23 -23 34 -33 17z"/>
<path d="M100 1150 c20 -13 33 -13 25 0 -3 6 -14 10 -23 10 -15 0 -15 -2 -2
-10z"/>
<path d="M501 740 c-14 -63 -14 -60 4 -60 20 0 37 35 33 72 -5 51 -25 44 -37
-12z"/>
<path d="M140 836 c0 -2 7 -6 15 -10 8 -3 15 -1 15 4 0 6 -7 10 -15 10 -8 0
-15 -2 -15 -4z"/>
<path d="M325 440 c-3 -5 -1 -10 4 -10 6 0 11 5 11 10 0 6 -2 10 -4 10 -3 0
-8 -4 -11 -10z"/>
<path d="M420 325 c-14 -16 -10 -18 14 -9 9 3 16 10 16 15 0 14 -16 11 -30 -6z"/>
</g>
</svg>
